<svg width="830" height="191" viewBox="0 0 830 191" fill="none" xmlns="http://www.w3.org/2000/svg">
<g filter="url(#filter0_d_1_3)">
<path d="M197.797 136.144H318.469V151.696H197.797V136.144ZM248.485 110.512H267.637V144.208H248.485V110.512ZM248.341 61.264H265.333V64.144C265.333 89.632 245.029 110.224 208.453 114.976L201.541 99.856C233.941 95.968 248.341 79.408 248.341 64.144V61.264ZM250.933 61.264H267.781V64.144C267.781 79.408 282.181 95.968 314.581 99.856L307.669 114.976C271.093 110.224 250.933 89.632 250.933 64.144V61.264ZM208.021 51.472H308.101V66.88H208.021V51.472ZM248.485 35.2H267.637V57.808H248.485V35.2ZM359.498 87.616H378.65V110.8H359.498V87.616ZM420.41 33.472H439.562V110.656H420.41V33.472ZM329.402 93.52L327.386 80.272C353.018 80.272 384.554 80.272 412.634 77.536L413.642 89.344C384.698 93.376 354.314 93.664 329.402 93.52ZM346.25 114.688H439.562V145.936H365.402V156.448H346.538V133.984H420.554V127.648H346.25V114.688ZM346.538 152.848H442.586V165.952H346.538V152.848ZM396.794 95.248H426.314V106.624H396.794V95.248ZM369.722 35.344C389.594 35.344 402.986 43.264 402.986 55.36C402.986 67.6 389.594 75.376 369.722 75.376C349.706 75.376 336.314 67.6 336.314 55.36C336.314 43.264 349.706 35.344 369.722 35.344ZM369.722 47.872C360.074 47.872 354.17 50.464 354.17 55.36C354.17 60.256 360.074 62.704 369.722 62.704C379.226 62.704 385.13 60.256 385.13 55.36C385.13 50.464 379.226 47.872 369.722 47.872ZM561.485 154L553.997 129.52H516.557L509.069 154H485.597L521.885 50.752H548.525L584.957 154H561.485ZM541.325 87.328C540.845 85.696 540.221 83.632 539.453 81.136C538.685 78.64 537.917 76.096 537.149 73.504C536.381 70.912 535.757 68.656 535.277 66.736C534.797 68.656 534.125 71.056 533.261 73.936C532.493 76.72 531.725 79.408 530.957 82C530.285 84.496 529.757 86.272 529.373 87.328L522.029 111.232H548.813L541.325 87.328ZM633.546 154H586.746V141.616L599.274 135.856V69.328L586.746 63.568V51.184H633.546V63.568L621.018 69.328V135.856L633.546 141.616V154Z" fill="#4D4C4C"/>
</g>
<defs>
<filter id="filter0_d_1_3" x="185.797" y="25.472" width="459.75" height="156.48" filterUnits="userSpaceOnUse" color-interpolation-filters="sRGB">
<feFlood flood-opacity="0" result="BackgroundImageFix"/>
<feColorMatrix in="SourceAlpha" type="matrix" values="0 0 0 0 0 0 0 0 0 0 0 0 0 0 0 0 0 0 127 0" result="hardAlpha"/>
<feOffset dy="4"/>
<feGaussianBlur stdDeviation="6"/>
<feComposite in2="hardAlpha" operator="out"/>
<feColorMatrix type="matrix" values="0 0 0 0 0 0 0 0 0 0 0 0 0 0 0 0 0 0 0.25 0"/>
<feBlend mode="normal" in2="BackgroundImageFix" result="effect1_dropShadow_1_3"/>
<feBlend mode="normal" in="SourceGraphic" in2="effect1_dropShadow_1_3" result="shape"/>
</filter>
</defs>
</svg>
