<svg width="527" height="110" viewBox="0 0 527 110" fill="none" xmlns="http://www.w3.org/2000/svg">
<g filter="url(#filter0_d_617_166)">
<path d="M46.492 26.305V35.951H59.323V26.305H46.492ZM72.973 8.924V51.785H84.439V8.924H72.973ZM56.32 10.38V51.421H67.604V10.38H56.32ZM27.2 54.879V64.343H72.427V68.893H27.291V87.912H39.485V77.72H84.439V54.879H27.2ZM27.291 82.725V92.189H87.169V82.725H27.291ZM32.205 12.564C20.921 12.564 12.913 20.117 12.913 31.31C12.913 42.321 20.921 49.965 32.205 49.965C43.398 49.965 51.497 42.321 51.497 31.31C51.497 20.117 43.398 12.564 32.205 12.564ZM32.205 21.937C37.119 21.937 40.668 25.395 40.668 31.31C40.668 37.043 37.119 40.501 32.205 40.501C27.2 40.501 23.742 37.043 23.742 31.31C23.742 25.395 27.2 21.937 32.205 21.937ZM148.587 8.74199V93.281H160.599V8.74199H148.587ZM157.869 40.592V50.602H172.793V40.592H157.869ZM97.9909 63.797V73.716H105.089C119.74 73.716 131.297 73.17 144.037 70.895L142.854 61.158C130.478 63.342 119.376 63.797 105.089 63.797H97.9909ZM97.8999 15.931V25.577H124.654V38.954H97.9909V67.528H110.003V48.6H136.666V15.931H97.8999ZM199.54 14.657C186.891 14.657 177.791 26.305 177.791 44.687C177.791 63.251 186.891 74.899 199.54 74.899C212.098 74.899 221.289 63.251 221.289 44.687C221.289 26.305 212.098 14.657 199.54 14.657ZM199.54 25.668C205.728 25.668 209.732 32.311 209.732 44.687C209.732 57.245 205.728 63.979 199.54 63.979C193.443 63.979 189.348 57.245 189.348 44.687C189.348 32.311 193.443 25.668 199.54 25.668ZM235.121 8.74199V93.281H247.133V8.74199H235.121ZM217.74 39.136V48.873H240.217V39.136H217.74ZM295.334 13.929V23.666C295.334 33.13 290.693 43.504 278.954 48.691L285.324 58.064C299.065 52.24 304.798 37.953 304.798 23.666V13.929H295.334ZM297.518 13.929V23.666C297.518 37.407 303.069 50.147 316.173 55.334L322.634 46.143C311.532 41.775 306.982 32.675 306.982 23.666V13.929H297.518ZM340.47 8.924V60.339H351.936V8.924H340.47ZM330.369 29.308V39.045H343.746V29.308H330.369ZM322.634 10.471V57.7H333.918V10.471H322.634ZM323.362 61.522C305.617 61.522 294.424 67.437 294.424 77.356C294.424 87.184 305.617 93.099 323.362 93.099C341.016 93.099 352.391 87.184 352.391 77.356C352.391 67.437 341.016 61.522 323.362 61.522ZM323.362 70.622C334.191 70.622 340.197 72.897 340.197 77.356C340.197 81.815 334.191 83.999 323.362 83.999C312.533 83.999 306.436 81.815 306.436 77.356C306.436 72.897 312.533 70.622 323.362 70.622ZM381.595 13.201V20.754C381.595 32.311 375.68 43.686 361.302 48.327L367.581 58.064C384.143 52.513 391.696 37.68 391.696 20.754V13.201H381.595ZM384.143 13.201V20.208C384.143 36.588 390.877 50.147 406.438 55.516L412.717 46.052C399.34 41.775 393.88 31.401 393.88 20.208V13.201H384.143ZM420.452 8.833V58.155H432.555V8.833H420.452ZM403.981 60.339C386.145 60.339 375.134 66.436 375.134 76.719C375.134 87.093 386.145 93.099 403.981 93.099C421.817 93.099 432.828 87.093 432.828 76.719C432.828 66.436 421.817 60.339 403.981 60.339ZM403.981 69.712C414.992 69.712 420.816 71.987 420.816 76.719C420.816 81.451 414.992 83.817 403.981 83.817C393.061 83.817 387.237 81.451 387.237 76.719C387.237 71.987 393.061 69.712 403.981 69.712ZM405.073 24.121V33.949H422.181V24.121H405.073ZM501.981 8.833V93.099H514.175V8.833H501.981ZM477.138 17.569V19.753C477.138 42.321 468.402 57.609 444.196 69.257L450.475 78.903C480.414 64.434 489.15 43.322 489.15 17.569H477.138ZM448.655 17.569V27.124H482.871V17.569H448.655Z" fill="#4D4C4C"/>
</g>
<defs>
<filter id="filter0_d_617_166" x="0.913025" y="0.742004" width="525.262" height="108.539" filterUnits="userSpaceOnUse" color-interpolation-filters="sRGB">
<feFlood flood-opacity="0" result="BackgroundImageFix"/>
<feColorMatrix in="SourceAlpha" type="matrix" values="0 0 0 0 0 0 0 0 0 0 0 0 0 0 0 0 0 0 127 0" result="hardAlpha"/>
<feOffset dy="4"/>
<feGaussianBlur stdDeviation="6"/>
<feComposite in2="hardAlpha" operator="out"/>
<feColorMatrix type="matrix" values="0 0 0 0 0 0 0 0 0 0 0 0 0 0 0 0 0 0 0.25 0"/>
<feBlend mode="normal" in2="BackgroundImageFix" result="effect1_dropShadow_617_166"/>
<feBlend mode="normal" in="SourceGraphic" in2="effect1_dropShadow_617_166" result="shape"/>
</filter>
</defs>
</svg>
