<svg width="836" height="191" viewBox="0 0 836 191" fill="none" xmlns="http://www.w3.org/2000/svg">
<g filter="url(#filter0_d_601_52)">
<path d="M65.328 61.12V76.384H85.632V61.12H65.328ZM107.232 33.616V101.44H125.376V33.616H107.232ZM80.88 35.92V100.864H98.736V35.92H80.88ZM34.8 106.336V121.312H106.368V128.512H34.944V158.608H54.24V142.48H125.376V106.336H34.8ZM34.944 150.4V165.376H129.696V150.4H34.944ZM42.72 39.376C24.864 39.376 12.192 51.328 12.192 69.04C12.192 86.464 24.864 98.56 42.72 98.56C60.432 98.56 73.248 86.464 73.248 69.04C73.248 51.328 60.432 39.376 42.72 39.376ZM42.72 54.208C50.496 54.208 56.112 59.68 56.112 69.04C56.112 78.112 50.496 83.584 42.72 83.584C34.8 83.584 29.328 78.112 29.328 69.04C29.328 59.68 34.8 54.208 42.72 54.208ZM226.885 33.328V167.104H245.893V33.328H226.885ZM241.573 83.728V99.568H265.189V83.728H241.573ZM146.821 120.448V136.144H158.053C181.237 136.144 199.525 135.28 219.685 131.68L217.813 116.272C198.229 119.728 180.661 120.448 158.053 120.448H146.821ZM146.677 44.704V59.968H189.013V81.136H146.821V126.352H165.829V96.4H208.021V44.704H146.677ZM307.513 42.688C287.497 42.688 273.097 61.12 273.097 90.208C273.097 119.584 287.497 138.016 307.513 138.016C327.385 138.016 341.929 119.584 341.929 90.208C341.929 61.12 327.385 42.688 307.513 42.688ZM307.513 60.112C317.305 60.112 323.641 70.624 323.641 90.208C323.641 110.08 317.305 120.736 307.513 120.736C297.865 120.736 291.385 110.08 291.385 90.208C291.385 70.624 297.865 60.112 307.513 60.112ZM363.817 33.328V167.104H382.825V33.328H363.817ZM336.313 81.424V96.832H371.881V81.424H336.313ZM459.101 41.536V56.944C459.101 71.92 451.757 88.336 433.181 96.544L443.261 111.376C465.005 102.16 474.077 79.552 474.077 56.944V41.536H459.101ZM462.557 41.536V56.944C462.557 78.688 471.341 98.848 492.077 107.056L502.301 92.512C484.733 85.6 477.533 71.2 477.533 56.944V41.536H462.557ZM530.525 33.616V114.976H548.669V33.616H530.525ZM514.541 65.872V81.28H535.709V65.872H514.541ZM502.301 36.064V110.8H520.157V36.064H502.301ZM503.453 116.848C475.373 116.848 457.661 126.208 457.661 141.904C457.661 157.456 475.373 166.816 503.453 166.816C531.389 166.816 549.389 157.456 549.389 141.904C549.389 126.208 531.389 116.848 503.453 116.848ZM503.453 131.248C520.589 131.248 530.093 134.848 530.093 141.904C530.093 148.96 520.589 152.416 503.453 152.416C486.317 152.416 476.669 148.96 476.669 141.904C476.669 134.848 486.317 131.248 503.453 131.248ZM595.601 40.384V52.336C595.601 70.624 586.241 88.624 563.489 95.968L573.425 111.376C599.633 102.592 611.585 79.12 611.585 52.336V40.384H595.601ZM599.633 40.384V51.472C599.633 77.392 610.289 98.848 634.913 107.344L644.849 92.368C623.681 85.6 615.041 69.184 615.041 51.472V40.384H599.633ZM657.089 33.472V111.52H676.241V33.472H657.089ZM631.025 114.976C602.801 114.976 585.377 124.624 585.377 140.896C585.377 157.312 602.801 166.816 631.025 166.816C659.249 166.816 676.673 157.312 676.673 140.896C676.673 124.624 659.249 114.976 631.025 114.976ZM631.025 129.808C648.449 129.808 657.665 133.408 657.665 140.896C657.665 148.384 648.449 152.128 631.025 152.128C613.745 152.128 604.529 148.384 604.529 140.896C604.529 133.408 613.745 129.808 631.025 129.808ZM632.753 57.664V73.216H659.825V57.664H632.753ZM786.102 33.472V166.816H805.398V33.472H786.102ZM746.79 47.296V50.752C746.79 86.464 732.966 110.656 694.662 129.088L704.598 144.352C751.974 121.456 765.798 88.048 765.798 47.296H746.79ZM701.718 47.296V62.416H755.862V47.296H701.718Z" fill="#4D4C4C"/>
</g>
<defs>
<filter id="filter0_d_601_52" x="0.192017" y="25.328" width="817.206" height="157.776" filterUnits="userSpaceOnUse" color-interpolation-filters="sRGB">
<feFlood flood-opacity="0" result="BackgroundImageFix"/>
<feColorMatrix in="SourceAlpha" type="matrix" values="0 0 0 0 0 0 0 0 0 0 0 0 0 0 0 0 0 0 127 0" result="hardAlpha"/>
<feOffset dy="4"/>
<feGaussianBlur stdDeviation="6"/>
<feComposite in2="hardAlpha" operator="out"/>
<feColorMatrix type="matrix" values="0 0 0 0 0 0 0 0 0 0 0 0 0 0 0 0 0 0 0.25 0"/>
<feBlend mode="normal" in2="BackgroundImageFix" result="effect1_dropShadow_601_52"/>
<feBlend mode="normal" in="SourceGraphic" in2="effect1_dropShadow_601_52" result="shape"/>
</filter>
</defs>
</svg>
