<svg width="837" height="191" viewBox="0 0 837 191" fill="none" xmlns="http://www.w3.org/2000/svg">
<g filter="url(#filter0_d_512_2)">
<path d="M98.296 33.472V166.816H117.304V33.472H98.296ZM112.984 85.456V101.44H136.6V85.456H112.984ZM12.184 53.2V68.464H89.8V53.2H12.184ZM51.208 75.952C31.768 75.952 17.368 89.2 17.368 107.776C17.368 126.352 31.768 139.6 51.208 139.6C70.648 139.6 85.048 126.352 85.048 107.776C85.048 89.2 70.648 75.952 51.208 75.952ZM51.208 91.504C60.28 91.504 66.76 97.552 66.76 107.776C66.76 118 60.28 124.048 51.208 124.048C42.136 124.048 35.656 118 35.656 107.776C35.656 97.552 42.136 91.504 51.208 91.504ZM41.56 35.632V58.96H60.712V35.632H41.56ZM142.493 135.28V150.976H263.165V135.28H142.493ZM155.165 42.112V113.248H250.061V42.112H231.053V63.712H174.173V42.112H155.165ZM174.173 78.544H231.053V98.128H174.173V78.544ZM277.265 86.176V101.008H286.337C306.929 101.008 319.313 100.576 333.713 97.84L331.985 83.296C318.017 85.744 306.209 86.176 286.337 86.176H277.265ZM277.121 40.096V54.784H305.633V62.992H277.265V91.936H295.841V76.672H324.065V40.096H277.121ZM367.409 33.472V104.032H385.553V33.472H367.409ZM340.625 35.632V102.88H358.481V35.632H340.625ZM294.977 108.784V123.04H366.833V130.24H295.121V157.024H314.129V143.632H385.553V108.784H294.977ZM295.121 151.408V165.952H389.297V151.408H295.121ZM328.673 57.52V72.64H353.729V57.52H328.673ZM487.461 68.608V83.872H514.533V68.608H487.461ZM486.741 101.872V117.136H513.957V101.872H486.741ZM532.677 33.472V166.816H550.965V33.472H532.677ZM505.173 36.352V160.912H523.029V36.352H505.173ZM475.077 49.168V53.056C475.077 85.312 464.277 107.488 434.181 125.776L444.981 139.168C482.133 117.28 493.509 87.04 493.509 49.168H475.077ZM441.813 49.168V64.432H481.557V49.168H441.813ZM595.593 41.68V56.08C595.593 74.08 586.233 91.936 563.625 99.136L573.849 114.112C599.337 105.328 611.289 82.576 611.289 56.08V41.68H595.593ZM599.337 41.68V56.224C599.337 81.28 610.857 103.312 635.625 111.52L645.417 96.688C623.961 89.632 614.889 72.928 614.889 56.224V41.68H599.337ZM651.465 33.472V130.96H670.617V33.472H651.465ZM665.145 72.064V87.904H688.329V72.064H665.145ZM584.649 149.248V164.512H675.369V149.248H584.649ZM584.649 121.744V157.312H603.945V121.744H584.649ZM787.102 33.472V166.816H806.398V33.472H787.102ZM747.79 47.296V50.752C747.79 86.464 733.966 110.656 695.662 129.088L705.598 144.352C752.974 121.456 766.798 88.048 766.798 47.296H747.79ZM702.718 47.296V62.416H756.862V47.296H702.718Z" fill="#4D4C4C"/>
</g>
<defs>
<filter id="filter0_d_512_2" x="0.183594" y="25.4719" width="818.214" height="157.344" filterUnits="userSpaceOnUse" color-interpolation-filters="sRGB">
<feFlood flood-opacity="0" result="BackgroundImageFix"/>
<feColorMatrix in="SourceAlpha" type="matrix" values="0 0 0 0 0 0 0 0 0 0 0 0 0 0 0 0 0 0 127 0" result="hardAlpha"/>
<feOffset dy="4"/>
<feGaussianBlur stdDeviation="6"/>
<feComposite in2="hardAlpha" operator="out"/>
<feColorMatrix type="matrix" values="0 0 0 0 0 0 0 0 0 0 0 0 0 0 0 0 0 0 0.25 0"/>
<feBlend mode="normal" in2="BackgroundImageFix" result="effect1_dropShadow_512_2"/>
<feBlend mode="normal" in="SourceGraphic" in2="effect1_dropShadow_512_2" result="shape"/>
</filter>
</defs>
</svg>
